<svg width="512" height="512" viewBox="0 0 512 512" fill="none" xmlns="http://www.w3.org/2000/svg">
  <defs>
    <linearGradient id="gearGradient" x1="0%" y1="0%" x2="100%" y2="100%">
      <stop offset="0%" style="stop-color:#2E8CFF;stop-opacity:1" />
      <stop offset="50%" style="stop-color:#1E7FF0;stop-opacity:1" />
      <stop offset="100%" style="stop-color:#0066D9;stop-opacity:1" />
    </linearGradient>
    <filter id="shadow" x="-20%" y="-20%" width="140%" height="140%">
      <feDropShadow dx="2" dy="4" stdDeviation="4" flood-color="rgba(0,0,0,0.15)"/>
    </filter>
  </defs>
  
  <!-- Gear shape based on your image -->
  <g transform="translate(256, 256)" filter="url(#shadow)">
    <!-- Top tooth -->
    <path d="M-25 -180 L25 -180 L40 -150 L40 -120 L25 -90 L-25 -90 L-40 -120 L-40 -150 Z" fill="url(#gearGradient)"/>
    
    <!-- Top-right tooth -->
    <path d="M63 -163 L127 -127 L127 -82 L100 -55 L55 -82 L55 -127 Z" fill="url(#gearGradient)" transform="rotate(45)"/>
    
    <!-- Right tooth -->
    <path d="M90 -25 L180 -25 L180 25 L150 40 L120 40 L90 25 Z" fill="url(#gearGradient)"/>
    
    <!-- Bottom-right tooth -->
    <path d="M63 55 L127 82 L127 127 L100 163 L55 127 L55 82 Z" fill="url(#gearGradient)" transform="rotate(45)"/>
    
    <!-- Bottom tooth -->
    <path d="M-25 90 L25 90 L40 120 L40 150 L25 180 L-25 180 L-40 150 L-40 120 Z" fill="url(#gearGradient)"/>
    
    <!-- Bottom-left tooth -->
    <path d="M-127 55 L-82 82 L-55 127 L-82 163 L-127 127 L-163 82 Z" fill="url(#gearGradient)" transform="rotate(45)"/>
    
    <!-- Left tooth -->
    <path d="M-180 -25 L-90 -25 L-90 25 L-120 40 L-150 40 L-180 25 Z" fill="url(#gearGradient)"/>
    
    <!-- Top-left tooth -->
    <path d="M-127 -163 L-82 -127 L-55 -82 L-82 -55 L-127 -82 L-163 -127 Z" fill="url(#gearGradient)" transform="rotate(45)"/>
    
    <!-- Main gear body -->
    <circle r="90" fill="url(#gearGradient)"/>
    
    <!-- Center hole -->
    <circle r="45" fill="white"/>
  </g>
</svg>
